<?xml version="1.0" encoding="UTF-8"?>
<svg xmlns="http://www.w3.org/2000/svg" version="1.1" viewBox="0 0 1366 768">
  <defs>
    <style>
      .cls-1 {
        fill: none;
        stroke: #000;
        stroke-miterlimit: 10;
        stroke-width: 10px;
      }
    </style>
  </defs>
  <!-- Generator: Adobe Illustrator 28.7.2, SVG Export Plug-In . SVG Version: 1.2.0 Build 154)  -->
  <g>
    <g id="_レイヤー_1" data-name="レイヤー_1">
      <path class="cls-1" d="M185,393c12.76,15.62,31.76,36.75,57.61,58.47,29.31,24.64,200.89,162.24,379.39,98.53,100.19-35.76,195.58-132.5,198-237,.99-42.61-12.91-117.95-59-129-40.46-9.7-61.62,85.94-114,87-63.82,1.29-85.63-133.68-149-136-48.83-1.79-107.22,75.74-114,150-13.37,146.5,174.12,280.14,305,335,152.25,63.82,412.34,98.36,556-53,62.47-65.82,134.8-200.37,75-300-53.05-88.38-202.42-136.5-277-70-60.05,53.55-69.79,179.78-2,233,66.36,52.1,188.41,19.6,205-33,12.73-40.37-31.68-108.31-81-110-31.47-1.08-70.97,24.6-68,50,2.08,17.76,24.76,33.85,55,39"/>
    </g>
  </g>
</svg>